<mxfile host="app.diagrams.net" agent="Mozilla/5.0 (Windows NT 10.0; Win64; x64) AppleWebKit/537.36 (KHTML, like Gecko) Chrome/130.0.0.0 Safari/537.36" version="24.8.4">
  <diagram name="Página-1" id="Z0EjMtKeNHE4B5be9rgi">
    <mxGraphModel dx="2474" dy="1146" grid="0" gridSize="10" guides="1" tooltips="1" connect="1" arrows="1" fold="1" page="0" pageScale="1" pageWidth="827" pageHeight="1169" math="0" shadow="0">
      <root>
        <mxCell id="0" />
        <mxCell id="1" parent="0" />
        <mxCell id="jazVAWqanvkSrszFiPk0-11" style="edgeStyle=orthogonalEdgeStyle;rounded=0;orthogonalLoop=1;jettySize=auto;html=1;exitX=1;exitY=0.5;exitDx=0;exitDy=0;entryX=0;entryY=0.5;entryDx=0;entryDy=0;" edge="1" parent="1" source="A_3oXMYBXFG87ShGA-KE-1" target="jazVAWqanvkSrszFiPk0-10">
          <mxGeometry relative="1" as="geometry" />
        </mxCell>
        <mxCell id="A_3oXMYBXFG87ShGA-KE-1" value="Investigación y desarrollo" style="rounded=0;whiteSpace=wrap;html=1;" parent="1" vertex="1">
          <mxGeometry x="-457" y="-8" width="120" height="60" as="geometry" />
        </mxCell>
        <mxCell id="A_3oXMYBXFG87ShGA-KE-2" value="Pedidos" style="rounded=0;whiteSpace=wrap;html=1;" parent="1" vertex="1">
          <mxGeometry x="-457" y="86" width="120" height="60" as="geometry" />
        </mxCell>
        <mxCell id="gKCFeulcBhqecy7oDubD-19" style="edgeStyle=orthogonalEdgeStyle;rounded=0;orthogonalLoop=1;jettySize=auto;html=1;exitX=0;exitY=0.5;exitDx=0;exitDy=0;entryX=0.5;entryY=1;entryDx=0;entryDy=0;" parent="1" source="A_3oXMYBXFG87ShGA-KE-3" target="gKCFeulcBhqecy7oDubD-17" edge="1">
          <mxGeometry relative="1" as="geometry" />
        </mxCell>
        <mxCell id="A_3oXMYBXFG87ShGA-KE-3" value="Ventas" style="rounded=0;whiteSpace=wrap;html=1;" parent="1" vertex="1">
          <mxGeometry x="-457" y="180" width="120" height="60" as="geometry" />
        </mxCell>
        <mxCell id="A_3oXMYBXFG87ShGA-KE-4" value="Proveedor" style="rounded=0;whiteSpace=wrap;html=1;" parent="1" vertex="1">
          <mxGeometry x="-458" y="274" width="120" height="60" as="geometry" />
        </mxCell>
        <mxCell id="A_3oXMYBXFG87ShGA-KE-5" value="Servicio" style="rounded=0;whiteSpace=wrap;html=1;" parent="1" vertex="1">
          <mxGeometry x="-457" y="362" width="120" height="60" as="geometry" />
        </mxCell>
        <mxCell id="A_3oXMYBXFG87ShGA-KE-6" value="Soporte" style="rounded=0;whiteSpace=wrap;html=1;" parent="1" vertex="1">
          <mxGeometry x="-457" y="450" width="120" height="60" as="geometry" />
        </mxCell>
        <mxCell id="A_3oXMYBXFG87ShGA-KE-7" value="Finanzas" style="rounded=0;whiteSpace=wrap;html=1;" parent="1" vertex="1">
          <mxGeometry x="-83" y="-17" width="120" height="60" as="geometry" />
        </mxCell>
        <mxCell id="jazVAWqanvkSrszFiPk0-15" style="edgeStyle=orthogonalEdgeStyle;rounded=0;orthogonalLoop=1;jettySize=auto;html=1;exitX=1;exitY=0.5;exitDx=0;exitDy=0;entryX=0.5;entryY=0;entryDx=0;entryDy=0;" edge="1" parent="1" source="gKCFeulcBhqecy7oDubD-1" target="jazVAWqanvkSrszFiPk0-13">
          <mxGeometry relative="1" as="geometry" />
        </mxCell>
        <mxCell id="gKCFeulcBhqecy7oDubD-1" value="Seguridad e higiene" style="rounded=0;whiteSpace=wrap;html=1;" parent="1" vertex="1">
          <mxGeometry x="-83" y="86" width="120" height="60" as="geometry" />
        </mxCell>
        <mxCell id="jazVAWqanvkSrszFiPk0-5" style="edgeStyle=orthogonalEdgeStyle;rounded=0;orthogonalLoop=1;jettySize=auto;html=1;exitX=1;exitY=0.5;exitDx=0;exitDy=0;entryX=0.5;entryY=0;entryDx=0;entryDy=0;" edge="1" parent="1" source="gKCFeulcBhqecy7oDubD-2" target="jazVAWqanvkSrszFiPk0-4">
          <mxGeometry relative="1" as="geometry" />
        </mxCell>
        <mxCell id="gKCFeulcBhqecy7oDubD-2" value="Recursos humanos" style="rounded=0;whiteSpace=wrap;html=1;" parent="1" vertex="1">
          <mxGeometry x="-83" y="180" width="120" height="60" as="geometry" />
        </mxCell>
        <mxCell id="jazVAWqanvkSrszFiPk0-2" style="edgeStyle=orthogonalEdgeStyle;rounded=0;orthogonalLoop=1;jettySize=auto;html=1;exitX=0;exitY=0.25;exitDx=0;exitDy=0;entryX=0.5;entryY=0;entryDx=0;entryDy=0;" edge="1" parent="1" source="gKCFeulcBhqecy7oDubD-3" target="jazVAWqanvkSrszFiPk0-1">
          <mxGeometry relative="1" as="geometry" />
        </mxCell>
        <mxCell id="gKCFeulcBhqecy7oDubD-3" value="Clientes" style="rounded=0;whiteSpace=wrap;html=1;" parent="1" vertex="1">
          <mxGeometry x="-83" y="271" width="120" height="60" as="geometry" />
        </mxCell>
        <mxCell id="gKCFeulcBhqecy7oDubD-4" value="Roles" style="rounded=0;whiteSpace=wrap;html=1;" parent="1" vertex="1">
          <mxGeometry x="-83" y="362" width="120" height="60" as="geometry" />
        </mxCell>
        <mxCell id="jazVAWqanvkSrszFiPk0-19" style="edgeStyle=orthogonalEdgeStyle;rounded=0;orthogonalLoop=1;jettySize=auto;html=1;exitX=1;exitY=0.5;exitDx=0;exitDy=0;entryX=0;entryY=0.5;entryDx=0;entryDy=0;" edge="1" parent="1" source="gKCFeulcBhqecy7oDubD-5" target="jazVAWqanvkSrszFiPk0-16">
          <mxGeometry relative="1" as="geometry" />
        </mxCell>
        <mxCell id="gKCFeulcBhqecy7oDubD-5" value="Almacén" style="rounded=0;whiteSpace=wrap;html=1;" parent="1" vertex="1">
          <mxGeometry x="-83" y="450" width="120" height="60" as="geometry" />
        </mxCell>
        <mxCell id="gKCFeulcBhqecy7oDubD-7" style="edgeStyle=orthogonalEdgeStyle;rounded=0;orthogonalLoop=1;jettySize=auto;html=1;exitX=1;exitY=0.5;exitDx=0;exitDy=0;entryX=0;entryY=0.5;entryDx=0;entryDy=0;" parent="1" source="gKCFeulcBhqecy7oDubD-6" target="gKCFeulcBhqecy7oDubD-3" edge="1">
          <mxGeometry relative="1" as="geometry" />
        </mxCell>
        <mxCell id="gKCFeulcBhqecy7oDubD-8" style="edgeStyle=orthogonalEdgeStyle;rounded=0;orthogonalLoop=1;jettySize=auto;html=1;exitX=0;exitY=0.5;exitDx=0;exitDy=0;entryX=1;entryY=0.5;entryDx=0;entryDy=0;" parent="1" source="gKCFeulcBhqecy7oDubD-6" target="A_3oXMYBXFG87ShGA-KE-6" edge="1">
          <mxGeometry relative="1" as="geometry" />
        </mxCell>
        <mxCell id="gKCFeulcBhqecy7oDubD-6" value="Ayuda" style="rhombus;whiteSpace=wrap;html=1;" parent="1" vertex="1">
          <mxGeometry x="-285" y="440" width="80" height="80" as="geometry" />
        </mxCell>
        <mxCell id="gKCFeulcBhqecy7oDubD-16" style="edgeStyle=orthogonalEdgeStyle;rounded=0;orthogonalLoop=1;jettySize=auto;html=1;exitX=1;exitY=0.5;exitDx=0;exitDy=0;entryX=1;entryY=0.5;entryDx=0;entryDy=0;" parent="1" source="gKCFeulcBhqecy7oDubD-9" target="gKCFeulcBhqecy7oDubD-4" edge="1">
          <mxGeometry relative="1" as="geometry">
            <Array as="points">
              <mxPoint x="-245" y="257" />
              <mxPoint x="57" y="257" />
              <mxPoint x="57" y="392" />
            </Array>
          </mxGeometry>
        </mxCell>
        <mxCell id="jazVAWqanvkSrszFiPk0-21" style="edgeStyle=orthogonalEdgeStyle;rounded=0;orthogonalLoop=1;jettySize=auto;html=1;exitX=0;exitY=0.5;exitDx=0;exitDy=0;entryX=1;entryY=0.5;entryDx=0;entryDy=0;" edge="1" parent="1" source="gKCFeulcBhqecy7oDubD-9" target="A_3oXMYBXFG87ShGA-KE-4">
          <mxGeometry relative="1" as="geometry" />
        </mxCell>
        <mxCell id="gKCFeulcBhqecy7oDubD-9" value="Reparte" style="rhombus;whiteSpace=wrap;html=1;" parent="1" vertex="1">
          <mxGeometry x="-304" y="264" width="80" height="80" as="geometry" />
        </mxCell>
        <mxCell id="gKCFeulcBhqecy7oDubD-13" style="edgeStyle=orthogonalEdgeStyle;rounded=0;orthogonalLoop=1;jettySize=auto;html=1;exitX=1;exitY=0.5;exitDx=0;exitDy=0;entryX=0;entryY=0.5;entryDx=0;entryDy=0;" parent="1" source="gKCFeulcBhqecy7oDubD-12" target="A_3oXMYBXFG87ShGA-KE-7" edge="1">
          <mxGeometry relative="1" as="geometry" />
        </mxCell>
        <mxCell id="gKCFeulcBhqecy7oDubD-14" style="edgeStyle=orthogonalEdgeStyle;rounded=0;orthogonalLoop=1;jettySize=auto;html=1;exitX=0;exitY=0.5;exitDx=0;exitDy=0;entryX=1;entryY=0.5;entryDx=0;entryDy=0;" parent="1" source="gKCFeulcBhqecy7oDubD-12" target="A_3oXMYBXFG87ShGA-KE-3" edge="1">
          <mxGeometry relative="1" as="geometry" />
        </mxCell>
        <mxCell id="gKCFeulcBhqecy7oDubD-12" value="Produce" style="rhombus;whiteSpace=wrap;html=1;" parent="1" vertex="1">
          <mxGeometry x="-305" y="170" width="80" height="80" as="geometry" />
        </mxCell>
        <mxCell id="gKCFeulcBhqecy7oDubD-17" value="Equivalen" style="rhombus;whiteSpace=wrap;html=1;" parent="1" vertex="1">
          <mxGeometry x="-559" y="125" width="80" height="80" as="geometry" />
        </mxCell>
        <mxCell id="jazVAWqanvkSrszFiPk0-3" style="edgeStyle=orthogonalEdgeStyle;rounded=0;orthogonalLoop=1;jettySize=auto;html=1;exitX=0;exitY=0.5;exitDx=0;exitDy=0;entryX=1;entryY=0.5;entryDx=0;entryDy=0;" edge="1" parent="1" source="jazVAWqanvkSrszFiPk0-1" target="A_3oXMYBXFG87ShGA-KE-5">
          <mxGeometry relative="1" as="geometry" />
        </mxCell>
        <mxCell id="jazVAWqanvkSrszFiPk0-1" value="Invertir" style="rhombus;whiteSpace=wrap;html=1;" vertex="1" parent="1">
          <mxGeometry x="-256" y="327" width="80" height="80" as="geometry" />
        </mxCell>
        <mxCell id="jazVAWqanvkSrszFiPk0-6" style="edgeStyle=orthogonalEdgeStyle;rounded=0;orthogonalLoop=1;jettySize=auto;html=1;exitX=0.5;exitY=1;exitDx=0;exitDy=0;entryX=0;entryY=0.75;entryDx=0;entryDy=0;" edge="1" parent="1" source="jazVAWqanvkSrszFiPk0-4" target="A_3oXMYBXFG87ShGA-KE-5">
          <mxGeometry relative="1" as="geometry">
            <Array as="points">
              <mxPoint x="153" y="554" />
              <mxPoint x="-477" y="554" />
              <mxPoint x="-477" y="407" />
            </Array>
          </mxGeometry>
        </mxCell>
        <mxCell id="jazVAWqanvkSrszFiPk0-4" value="Imponer&amp;nbsp;" style="rhombus;whiteSpace=wrap;html=1;" vertex="1" parent="1">
          <mxGeometry x="113" y="238" width="80" height="80" as="geometry" />
        </mxCell>
        <mxCell id="jazVAWqanvkSrszFiPk0-8" style="edgeStyle=orthogonalEdgeStyle;rounded=0;orthogonalLoop=1;jettySize=auto;html=1;exitX=0;exitY=0.5;exitDx=0;exitDy=0;entryX=0.488;entryY=0;entryDx=0;entryDy=0;entryPerimeter=0;" edge="1" parent="1" source="A_3oXMYBXFG87ShGA-KE-2" target="gKCFeulcBhqecy7oDubD-17">
          <mxGeometry relative="1" as="geometry" />
        </mxCell>
        <mxCell id="jazVAWqanvkSrszFiPk0-12" style="edgeStyle=orthogonalEdgeStyle;rounded=0;orthogonalLoop=1;jettySize=auto;html=1;exitX=1;exitY=0.5;exitDx=0;exitDy=0;entryX=0;entryY=0.25;entryDx=0;entryDy=0;" edge="1" parent="1" source="jazVAWqanvkSrszFiPk0-10" target="A_3oXMYBXFG87ShGA-KE-7">
          <mxGeometry relative="1" as="geometry" />
        </mxCell>
        <mxCell id="jazVAWqanvkSrszFiPk0-10" value="Requiere" style="rhombus;whiteSpace=wrap;html=1;" vertex="1" parent="1">
          <mxGeometry x="-258" y="-52" width="80" height="80" as="geometry" />
        </mxCell>
        <mxCell id="jazVAWqanvkSrszFiPk0-14" style="edgeStyle=orthogonalEdgeStyle;rounded=0;orthogonalLoop=1;jettySize=auto;html=1;exitX=0;exitY=0.5;exitDx=0;exitDy=0;entryX=1;entryY=0.25;entryDx=0;entryDy=0;" edge="1" parent="1" source="jazVAWqanvkSrszFiPk0-13" target="gKCFeulcBhqecy7oDubD-2">
          <mxGeometry relative="1" as="geometry" />
        </mxCell>
        <mxCell id="jazVAWqanvkSrszFiPk0-13" value="Imponer" style="rhombus;whiteSpace=wrap;html=1;" vertex="1" parent="1">
          <mxGeometry x="97" y="111" width="80" height="80" as="geometry" />
        </mxCell>
        <mxCell id="jazVAWqanvkSrszFiPk0-18" style="edgeStyle=orthogonalEdgeStyle;rounded=0;orthogonalLoop=1;jettySize=auto;html=1;exitX=0.5;exitY=0;exitDx=0;exitDy=0;entryX=1;entryY=0.75;entryDx=0;entryDy=0;" edge="1" parent="1" source="jazVAWqanvkSrszFiPk0-16" target="gKCFeulcBhqecy7oDubD-4">
          <mxGeometry relative="1" as="geometry" />
        </mxCell>
        <mxCell id="jazVAWqanvkSrszFiPk0-16" value="Requiere" style="rhombus;whiteSpace=wrap;html=1;" vertex="1" parent="1">
          <mxGeometry x="72" y="440" width="80" height="80" as="geometry" />
        </mxCell>
        <mxCell id="jazVAWqanvkSrszFiPk0-22" value="1...1" style="text;strokeColor=none;align=center;fillColor=none;html=1;verticalAlign=middle;whiteSpace=wrap;rounded=0;" vertex="1" parent="1">
          <mxGeometry x="-351" y="-4" width="60" height="30" as="geometry" />
        </mxCell>
        <mxCell id="jazVAWqanvkSrszFiPk0-23" value="1...N" style="text;strokeColor=none;align=center;fillColor=none;html=1;verticalAlign=middle;whiteSpace=wrap;rounded=0;" vertex="1" parent="1">
          <mxGeometry x="-140" y="-29" width="60" height="30" as="geometry" />
        </mxCell>
        <mxCell id="jazVAWqanvkSrszFiPk0-24" value="1...N" style="text;strokeColor=none;align=center;fillColor=none;html=1;verticalAlign=middle;whiteSpace=wrap;rounded=0;" vertex="1" parent="1">
          <mxGeometry x="-517" y="81" width="60" height="30" as="geometry" />
        </mxCell>
        <mxCell id="jazVAWqanvkSrszFiPk0-25" value="1...N" style="text;strokeColor=none;align=center;fillColor=none;html=1;verticalAlign=middle;whiteSpace=wrap;rounded=0;" vertex="1" parent="1">
          <mxGeometry x="-512" y="225" width="60" height="30" as="geometry" />
        </mxCell>
        <mxCell id="jazVAWqanvkSrszFiPk0-26" value="1...N" style="text;strokeColor=none;align=center;fillColor=none;html=1;verticalAlign=middle;whiteSpace=wrap;rounded=0;" vertex="1" parent="1">
          <mxGeometry x="-345" y="175" width="60" height="30" as="geometry" />
        </mxCell>
        <mxCell id="jazVAWqanvkSrszFiPk0-27" value="1...N" style="text;strokeColor=none;align=center;fillColor=none;html=1;verticalAlign=middle;whiteSpace=wrap;rounded=0;" vertex="1" parent="1">
          <mxGeometry x="-140" y="17" width="60" height="30" as="geometry" />
        </mxCell>
        <mxCell id="jazVAWqanvkSrszFiPk0-31" value="1...1" style="text;strokeColor=none;align=center;fillColor=none;html=1;verticalAlign=middle;whiteSpace=wrap;rounded=0;" vertex="1" parent="1">
          <mxGeometry x="27" y="113" width="60" height="30" as="geometry" />
        </mxCell>
        <mxCell id="jazVAWqanvkSrszFiPk0-32" value="1...1" style="text;strokeColor=none;align=center;fillColor=none;html=1;verticalAlign=middle;whiteSpace=wrap;rounded=0;" vertex="1" parent="1">
          <mxGeometry x="5" y="150" width="60" height="30" as="geometry" />
        </mxCell>
        <mxCell id="jazVAWqanvkSrszFiPk0-33" value="1...1" style="text;strokeColor=none;align=center;fillColor=none;html=1;verticalAlign=middle;whiteSpace=wrap;rounded=0;" vertex="1" parent="1">
          <mxGeometry x="31" y="210" width="60" height="30" as="geometry" />
        </mxCell>
        <mxCell id="jazVAWqanvkSrszFiPk0-34" value="1...N" style="text;strokeColor=none;align=center;fillColor=none;html=1;verticalAlign=middle;whiteSpace=wrap;rounded=0;" vertex="1" parent="1">
          <mxGeometry x="-515" y="377" width="60" height="30" as="geometry" />
        </mxCell>
        <mxCell id="jazVAWqanvkSrszFiPk0-35" value="1...1" style="text;strokeColor=none;align=center;fillColor=none;html=1;verticalAlign=middle;whiteSpace=wrap;rounded=0;" vertex="1" parent="1">
          <mxGeometry x="-345" y="394" width="60" height="30" as="geometry" />
        </mxCell>
        <mxCell id="jazVAWqanvkSrszFiPk0-36" value="1...N" style="text;strokeColor=none;align=center;fillColor=none;html=1;verticalAlign=middle;whiteSpace=wrap;rounded=0;" vertex="1" parent="1">
          <mxGeometry x="-143" y="259" width="60" height="30" as="geometry" />
        </mxCell>
        <mxCell id="jazVAWqanvkSrszFiPk0-37" value="1...1" style="text;strokeColor=none;align=center;fillColor=none;html=1;verticalAlign=middle;whiteSpace=wrap;rounded=0;" vertex="1" parent="1">
          <mxGeometry x="-343" y="454" width="60" height="30" as="geometry" />
        </mxCell>
        <mxCell id="jazVAWqanvkSrszFiPk0-38" value="1...N" style="text;strokeColor=none;align=center;fillColor=none;html=1;verticalAlign=middle;whiteSpace=wrap;rounded=0;" vertex="1" parent="1">
          <mxGeometry x="-137" y="301" width="60" height="30" as="geometry" />
        </mxCell>
        <mxCell id="jazVAWqanvkSrszFiPk0-39" value="1...1" style="text;strokeColor=none;align=center;fillColor=none;html=1;verticalAlign=middle;whiteSpace=wrap;rounded=0;" vertex="1" parent="1">
          <mxGeometry x="-345" y="261" width="60" height="30" as="geometry" />
        </mxCell>
        <mxCell id="jazVAWqanvkSrszFiPk0-40" value="1...N" style="text;strokeColor=none;align=center;fillColor=none;html=1;verticalAlign=middle;whiteSpace=wrap;rounded=0;" vertex="1" parent="1">
          <mxGeometry x="51" y="364" width="60" height="30" as="geometry" />
        </mxCell>
        <mxCell id="jazVAWqanvkSrszFiPk0-41" value="1...1" style="text;strokeColor=none;align=center;fillColor=none;html=1;verticalAlign=middle;whiteSpace=wrap;rounded=0;" vertex="1" parent="1">
          <mxGeometry x="27" y="445" width="60" height="30" as="geometry" />
        </mxCell>
        <mxCell id="jazVAWqanvkSrszFiPk0-42" value="1...N" style="text;strokeColor=none;align=center;fillColor=none;html=1;verticalAlign=middle;whiteSpace=wrap;rounded=0;" vertex="1" parent="1">
          <mxGeometry x="29" y="410" width="60" height="30" as="geometry" />
        </mxCell>
      </root>
    </mxGraphModel>
  </diagram>
</mxfile>
